<svg stroke-width="0" fill="#235D9F" width="20" height="24" stroke="currentColor" stroke-linecap="round" viewBox="0 0 24 24" xmlns="http://www.w3.org/2000/svg" xmlns:xlink="http://www.w3.org/1999/xlink"><g><path d="M14,9 L20.0029699,9 C21.1057446,9 22,9.89239597 22,10.9955775 L22,21 C22,21.5522847 21.5522847,22 21,22 L13.0000005,22 L11,22 C10.4477153,22 10,21.5522847 10,21 C10,21 9.99293448,19 9.9906311,19 C9.9906311,19 6,18.9999116 6,19.0093689 L6,21 C6,21.5522847 5.55228475,22 5,22 L3,22 C2.44771525,22 2,21.5522847 2,21 L2,3.99339768 C2,2.89389127 2.90191241,2 3.99539757,2 L12.0046024,2 C13.1061447,2 14,2.89217541 14,3.99339768 L14,9 Z M5,7 C5,7.55613518 5.44358641,8 5.99077797,8 L10.009222,8 C10.5490248,8 11,7.55228475 11,7 C11,6.44386482 10.5564136,6 10.009222,6 L5.99077797,6 C5.45097518,6 5,6.44771525 5,7 Z M5,11 C5,11.5561352 5.44358641,12 5.99077797,12 L10.009222,12 C10.5490248,12 11,11.5522847 11,11 C11,10.4438648 10.5564136,10 10.009222,10 L5.99077797,10 C5.45097518,10 5,10.4477153 5,11 Z M5,15 C5,15.5561352 5.44358641,16 5.99077797,16 L10.009222,16 C10.5490248,16 11,15.5522847 11,15 C11,14.4438648 10.5564136,14 10.009222,14 L5.99077797,14 C5.45097518,14 5,14.4477153 5,15 Z M15,13 C15,13.5561352 15.4477153,14 16,14 C16.5561352,14 17,13.5522847 17,13 C17,12.4438648 16.5522847,12 16,12 C15.4438648,12 15,12.4477153 15,13 Z M18,13 C18,13.5561352 18.4477153,14 19,14 C19.5561352,14 20,13.5522847 20,13 C20,12.4438648 19.5522847,12 19,12 C18.4438648,12 18,12.4477153 18,13 Z M15,17 C15,17.5561352 15.4477153,18 16,18 C16.5561352,18 17,17.5522847 17,17 C17,16.4438648 16.5522847,16 16,16 C15.4438648,16 15,16.4477153 15,17 Z M18,17 C18,17.5561352 18.4477153,18 19,18 C19.5561352,18 20,17.5522847 20,17 C20,16.4438648 19.5522847,16 19,16 C18.4438648,16 18,16.4477153 18,17 Z"></path></g></svg>