<svg fill="#0770CD" height="24" stroke="currentColor" stroke-linecap="round" viewBox="0 0 24 24" width="24" xmlns="http://www.w3.org/2000/svg" xmlns:xlink="http://www.w3.org/1999/xlink"><g><g stroke="none" stroke-width="1" fill="none" fill-rule="evenodd"><g fill="#0770CD"><g><path d="M2,6 C2,5.44771525 2.45530558,5 2.99180311,5 L21.0081969,5 C21.5559546,5 22,5.44386482 22,6 C22,6.55228475 21.5446944,7 21.0081969,7 L2.99180311,7 C2.44404538,7 2,6.55613518 2,6 Z M2,12 C2,11.4477153 2.45530558,11 2.99180311,11 L21.0081969,11 C21.5559546,11 22,11.4438648 22,12 C22,12.5522847 21.5446944,13 21.0081969,13 L2.99180311,13 C2.44404538,13 2,12.5561352 2,12 Z M2,18 C2,17.4477153 2.45530558,17 2.99180311,17 L21.0081969,17 C21.5559546,17 22,17.4438648 22,18 C22,18.5522847 21.5446944,19 21.0081969,19 L2.99180311,19 C2.44404538,19 2,18.5561352 2,18 Z"></path></g></g></g></g></svg>