<svg stroke-width="0" fill="#931682" width="20" height="24" stroke="currentColor" stroke-linecap="round" viewBox="0 0 24 24" xmlns="http://www.w3.org/2000/svg" xmlns:xlink="http://www.w3.org/1999/xlink"><g fill="none" fill-rule="evenodd"><rect width="24" height="24"></rect><path fill="#931682" fill-rule="nonzero" d="M3,23 L0,23 L0,11 C-6.76353751e-17,10.4477153 0.44771525,10 1,10 L8,10 C8.55228475,10 9,10.4477153 9,11 L9,14 L11,14 C12.1045695,14 13,14.8954305 13,16 L13,23 L6,23 L6,20.5 C6,20.2238576 5.77614237,20 5.5,20 L3.5,20 C3.22385763,20 3,20.2238576 3,20.5 L3,23 Z M2,13 L2,15 L7,15 L7,13 L2,13 Z M2,16 L2,18 L7,18 L7,16 L2,16 Z M9,16 L9,17 L11,17 L11,16 L9,16 Z M9,18 L9,19 L11,19 L11,18 L9,18 Z M9,20 L9,21 L11,21 L11,20 L9,20 Z M17.1653858,3.67841437 L20.8047986,1.66343446 C21.4738786,1.29299484 22.3338652,1.49934353 22.7571478,2.12436085 C23.1811365,2.75042094 23.0364694,3.60539977 22.4284275,4.06087824 L19.1085878,6.54773865 L19.0842578,13.305858 C19.0813602,14.1107197 17.9151687,14.2695068 17.6878382,13.4959927 L16.1430638,8.2397455 L13.9736479,9.46975892 C13.8173406,9.54819446 13.2348982,9.64550911 13.1822635,9.64435181 L12.5557711,12.6505218 C12.4116521,13.3420647 11.4271543,13.4092222 11.1866571,12.7439159 L10.2682483,10.2032503 L8.23417465,8.38429223 C7.70152603,7.90797442 8.14945221,7.04851753 8.85709334,7.18906903 L11.9332477,7.80005401 C11.952719,7.75224847 12.2719531,7.26628155 12.4357391,7.13401465 L14.4128447,5.68504973 L10.0660454,2.24168404 C9.42633656,1.73493152 10.0315575,0.747817412 10.7907482,1.05969514 L17.1653858,3.67841437 Z"></path></g></svg>