<svg id="Capa_1" enable-background="new 0 0 512.001 512.001" height="512" viewBox="0 0 512.001 512.001" width="512" xmlns="http://www.w3.org/2000/svg"><g><g><g><g><path d="m66.68 416.995v-370.753c0-25.539 20.719-46.242 46.277-46.242h286.208c25.559 0 46.278 20.703 46.278 46.242v330.816l-9.426 39.937z" fill="#0d8ebc"/><path d="m399.165 0h-143.104v416.995h179.955l9.426-39.937v-330.816c.001-25.539-20.719-46.242-46.277-46.242z" fill="#0a617d"/></g><g><path d="m313.908 163.744h-28.757v-30.417c0-8.284-6.716-15-15-15h-28.3c-8.284 0-15 6.716-15 15v30.417h-28.757c-8.284 0-15 6.716-15 15v30.513c0 8.284 6.716 15 15 15h28.757v30.417c0 8.284 6.716 15 15 15h28.3c8.284 0 15-6.716 15-15v-30.417h28.757c8.284 0 15-6.716 15-15v-30.513c0-8.284-6.716-15-15-15z" fill="#ff6378"/><path d="m313.908 163.744h-28.757v-30.417c0-8.284-6.716-15-15-15h-14.089v151.347h14.089c8.284 0 15-6.716 15-15v-30.417h28.757c8.284 0 15-6.716 15-15v-30.512c0-8.285-6.716-15.001-15-15.001z" fill="#c30047"/></g></g><g><g><path d="m445.443 348.802h-312.17c-36.846 0-66.715 29.846-66.715 66.664 0 36.817 29.869 66.664 66.715 66.664h297.169c8.284 0 15-6.711 15-14.988v-13.268l-9.426-36.878 9.426-39.937v-28.257z" fill="#0a617d"/><path d="m445.443 348.802h-189.382v133.328h174.382c8.284 0 15-6.711 15-14.988v-13.268l-9.426-36.878 9.426-39.937z" fill="#05303d"/></g><g><path d="m94.837 415.466c0 21.212 17.208 38.407 38.436 38.407h312.17v-76.814h-312.17c-21.228-.001-38.436 17.195-38.436 38.407z" fill="#fbf4f4"/><path d="m256.061 377.058h189.382v76.814h-189.382z" fill="#e2dff4"/></g></g></g><g><path d="m193.794 510.258-16.633-11.247-16.633 11.247c-4.556 3.081-10.923 2.006-13.835-2.66-.945-1.514-1.499-3.313-1.499-5.275l-.023-77.872c0-5.519 4.474-9.992 9.992-9.992h43.943c5.523 0 10 4.477 10 10l.023 77.865c0 1.962-.554 3.76-1.499 5.275-2.913 4.665-9.28 5.74-13.836 2.659z" fill="#ff6378"/><path d="m199.113 414.458h-21.975l.023 84.553 16.633 11.247c4.556 3.081 10.923 2.006 13.835-2.66.945-1.514 1.499-3.313 1.499-5.274l-.023-77.872c0-5.52-4.474-9.994-9.992-9.994z" fill="#c30047"/></g></g></svg>