<svg height="511pt" viewBox="0 0 511 511.99938" width="511pt" xmlns="http://www.w3.org/2000/svg"><path d="m34.640625 362.285156c35.578125-35.578125 93.460937-35.578125 129.039063-.003906.003906.003906.003906.003906.007812.007812 51.28125 51.277344 134.292969 51.292969 185.59375.003907.003906-.003907.007812-.007813.015625-.015625 35.574219-35.570313 93.457031-35.570313 129.03125.007812 7.8125 7.808594 20.476563 7.808594 28.285156 0 7.808594-7.8125 7.808594-20.472656 0-28.285156-40.910156-40.910156-102.328125-49.105469-151.464843-24.605469v-250.066406c0-10.660156 8.671874-19.332031 19.332031-19.332031 10.660156 0 19.332031 8.675781 19.332031 19.332031 0 11.046875 8.953125 20 20 20 11.042969 0 19.996094-8.953125 19.996094-20 0-32.710937-26.613282-59.328125-59.328125-59.328125-32.714844 0-59.332031 26.617188-59.332031 59.328125v58.664063h-117.324219v-58.664063c0-10.660156 8.671875-19.332031 19.328125-19.332031 10.664062 0 19.332031 8.675781 19.332031 19.332031 0 11.046875 8.957031 20 20 20 11.046875 0 20-8.953125 20-20 0-32.710937-26.613281-59.328125-59.332031-59.328125-32.710938 0-59.328125 26.617188-59.328125 59.328125v250.066406c-49.136719-24.5-110.554688-16.300781-151.464844 24.605469-7.8125 7.8125-7.8125 20.472656 0 28.285156 7.808594 7.808594 20.472656 7.808594 28.28125 0zm163.183594-22.933594v-63.367187h117.324219v63.367187c-33.324219 28.078126-82.980469 28.933594-117.324219 0zm117.324219-181.359374v77.992187h-117.324219v-77.992187zm191.464843 287.253906c7.808594 7.8125 7.808594 20.472656 0 28.28125-7.808593 7.8125-20.472656 7.8125-28.285156 0-35.574219-35.574219-93.464844-35.574219-129.039063 0-51.296874 51.300781-134.316406 51.292968-185.605468 0-35.578125-35.574219-93.464844-35.574219-129.042969 0-7.808594 7.8125-20.472656 7.8125-28.28125 0-7.808594-7.808594-7.8125-20.472656 0-28.28125 51.171875-51.171875 134.433594-51.171875 185.605469 0 35.664062 35.664062 93.386718 35.660156 129.042968 0 51.171876-51.171875 134.433594-51.171875 185.605469 0zm0 0"/></svg>