<svg id="Capa_1" enable-background="new 0 0 511.451 511.451" height="512" viewBox="0 0 511.451 511.451" width="512" xmlns="http://www.w3.org/2000/svg"><g><path d="m473.542 313.108c6.771-7.678 10.874-17.707 10.874-28.667 0-13.951-6.66-26.387-16.994-34.392 26.683-19.362 44.029-50.508 44.029-85.572 0-58.585-48.412-106.247-107.918-106.247l-332.28.023c-24.382 0-44.218 19.601-44.218 43.693 0 10.96 4.104 20.989 10.874 28.667-19.483 14.126-32.155 36.92-32.155 62.588 0 28.768 15.947 53.907 39.549 67.285-27.405 19.287-45.303 50.867-45.303 86.487 0 58.585 48.412 106.248 107.918 106.248h319.35c43.246 0 78.43-34.777 78.43-77.524-.001-25.668-12.673-48.463-32.156-62.589zm-70.009-224.878c42.964 0 77.918 34.205 77.918 76.247 0 42.043-34.954 76.248-77.918 76.248h-119.774c20.242-19.324 32.845-46.362 32.845-76.248s-12.603-56.924-32.845-76.247zm-319.349 152.496c-26.704 0-48.43-21.319-48.43-47.524 0-26.226 21.726-47.562 48.43-47.562h122.238c7.84 0 14.218 6.143 14.218 13.693s-6.378 13.693-14.218 13.693h-119.154c-8.284 0-15 6.716-15 15s6.716 15 15 15h119.154c24.382 0 44.218-19.601 44.218-43.693s-19.836-43.693-44.218-43.693h-135.169c-7.84 0-14.218-6.143-14.218-13.693s6.378-13.693 14.218-13.693l137.434-.023c42.964 0 77.918 34.205 77.918 76.247 0 42.043-34.954 76.248-77.918 76.248h-100.769zm23.734 182.495c-42.964 0-77.918-34.205-77.918-76.248s34.954-76.248 77.918-76.248h100.768 19.005c-20.242 19.324-32.845 46.362-32.845 76.248 0 29.885 12.603 56.924 32.845 76.248zm319.35 0h-124.503c-42.964 0-77.918-34.205-77.918-76.248s34.954-76.248 77.915-76.248l137.437.023c7.84 0 14.218 6.143 14.218 13.693s-6.378 13.693-14.218 13.693h-135.17c-24.382 0-44.218 19.6-44.218 43.693s19.836 43.693 44.218 43.693h119.154c8.284 0 15-6.716 15-15s-6.716-15-15-15h-119.154c-7.84 0-14.218-6.143-14.218-13.693s6.378-13.693 14.218-13.693h122.238c26.704 0 48.43 21.336 48.43 47.561 0 26.206-21.725 47.526-48.429 47.526z"/></g></svg>