<svg height="512pt" viewBox="-121 0 512 512" width="512pt" xmlns="http://www.w3.org/2000/svg"><path d="m225 300c24.8125 0 45-20.1875 45-45v-210c0-24.8125-20.1875-45-45-45h-180c-24.8125 0-45 20.1875-45 45v210c0 24.8125 20.1875 45 45 45h75v62h-15c-6.886719 0-12.875 4.6875-14.546875 11.367188l-27.15625 108.632812h-48.296875c-8.289062 0-15 6.710938-15 15s6.710938 15 15 15h240c8.289062 0 15-6.710938 15-15s-6.710938-15-15-15h-48.296875l-27.15625-108.632812c-1.671875-6.679688-7.660156-11.367188-14.546875-11.367188h-15v-62zm-135-120v45c0 8.289062-6.710938 15-15 15s-15-6.710938-15-15v-150c0-8.289062 6.710938-15 15-15h75c33.089844 0 60 26.910156 60 60s-26.910156 60-60 60zm0 0"/><path d="m180 120c0-16.539062-13.460938-30-30-30h-60v60h60c16.539062 0 30-13.460938 30-30zm0 0"/></svg>