<svg width="64" height="64" viewBox="0 0 64 64" fill="none" xmlns="http://www.w3.org/2000/svg"><path d="M31.9802 63.9604C49.6424 63.9604 63.9604 49.6424 63.9604 31.9802C63.9604 14.318 49.6424 0 31.9802 0C14.318 0 0 14.318 0 31.9802C0 49.6424 14.318 63.9604 31.9802 63.9604Z" fill="#FFE7C0"></path><path d="M31.6639 54.1843C43.0963 54.1843 52.364 53.3691 52.364 52.3636C52.364 51.3581 43.0963 50.543 31.6639 50.543C20.2316 50.543 10.9639 51.3581 10.9639 52.3636C10.9639 53.3691 20.2316 54.1843 31.6639 54.1843Z" fill="#FFD18D"></path><path d="M17.4797 48.8017C15.1622 47.3377 13.3502 45.2158 12.0388 42.4405C10.7275 39.67 10.0742 36.3559 10.0742 32.5078C10.0742 28.6596 10.7275 25.3503 12.0388 22.575C13.3502 19.7998 15.1622 17.6826 17.4797 16.2139C19.7971 14.75 22.4341 14.0156 25.3953 14.0156C28.3566 14.0156 30.9983 14.75 33.311 16.2139C35.6285 17.6778 37.4405 19.7998 38.7518 22.575C40.0632 25.3503 40.7164 28.6596 40.7164 32.5078C40.7164 36.3559 40.0584 39.6653 38.7518 42.4405C37.4405 45.2158 35.6285 47.3377 33.311 48.8017C30.9935 50.2656 28.3566 50.9999 25.3953 50.9999C22.4341 50.9999 19.7971 50.2704 17.4797 48.8017ZM30.531 41.1912C31.7756 39.3172 32.3955 36.4227 32.3955 32.5078C32.3955 28.5929 31.7708 25.6984 30.531 23.8291C29.2864 21.9551 27.5745 21.0205 25.4001 21.0205C23.2543 21.0205 21.5615 21.9551 20.3169 23.8291C19.0723 25.7032 18.4524 28.5976 18.4524 32.5125C18.4524 36.4275 19.0723 39.3219 20.3169 41.1959C21.5615 43.07 23.2543 44.0046 25.4001 44.0046C27.5745 43.9998 29.2864 43.0652 30.531 41.1912Z" fill="#458CFF"></path><path d="M61.2252 11.2832V33.3804H56.7905V31.535C55.6412 32.9226 53.9723 33.6188 51.7883 33.6188C50.2815 33.6188 48.9129 33.2802 47.6922 32.6079C46.4714 31.9355 45.513 30.9723 44.8168 29.7182C44.1206 28.4688 43.7725 27.0192 43.7725 25.3693C43.7725 23.7194 44.1206 22.2746 44.8168 21.0204C45.513 19.7711 46.4714 18.8079 47.6922 18.1307C48.9129 17.4584 50.2767 17.1198 51.7883 17.1198C53.834 17.1198 55.4314 17.7636 56.5806 19.0558V11.2832H61.2252ZM55.5077 28.5976C56.2802 27.7917 56.6712 26.7188 56.6712 25.3645C56.6712 24.0151 56.285 22.9374 55.5077 22.1315C54.7352 21.3256 53.7625 20.9251 52.5894 20.9251C51.3973 20.9251 50.415 21.3256 49.6425 22.1315C48.87 22.9374 48.479 24.0103 48.479 25.3645C48.479 26.714 48.8652 27.7917 49.6425 28.5976C50.415 29.4034 51.3973 29.804 52.5894 29.804C53.7577 29.804 54.7305 29.4034 55.5077 28.5976ZM51.1302 13.038H63.3996V15.7179H51.1302V13.038Z" fill="#458CFF"></path><path d="M16.4435 48.0741C14.1261 46.6102 12.314 44.4882 11.0027 41.713C9.69137 38.9425 9.03809 35.6284 9.03809 31.7802C9.03809 27.9321 9.69137 24.6228 11.0027 21.8475C12.314 19.0722 14.1261 16.955 16.4435 15.4864C18.761 14.0224 21.398 13.2881 24.3592 13.2881C27.3204 13.2881 29.9622 14.0224 32.2749 15.4864C34.5924 16.9503 36.4044 19.0722 37.7157 21.8475C39.027 24.6228 39.6803 27.9321 39.6803 31.7802C39.6803 35.6284 39.0223 38.9377 37.7157 41.713C36.4044 44.4882 34.5924 46.6102 32.2749 48.0741C29.9574 49.538 27.3204 50.2724 24.3592 50.2724C21.398 50.2724 18.761 49.5428 16.4435 48.0741ZM29.4949 40.4636C30.7394 38.5896 31.3593 35.6952 31.3593 31.7802C31.3593 27.8653 30.7347 24.9709 29.4949 23.1016C28.2503 21.2276 26.5384 20.293 24.364 20.293C22.2182 20.293 20.5253 21.2276 19.2808 23.1016C18.0362 24.9756 17.4163 27.8701 17.4163 31.785C17.4163 35.6999 18.0362 38.5944 19.2808 40.4684C20.5253 42.3424 22.2182 43.277 24.364 43.277C26.5384 43.2723 28.2503 42.3376 29.4949 40.4636Z" fill="#2671DD"></path><path d="M60.189 10.5557V32.6528H55.7543V30.8074C54.6051 32.195 52.9361 32.8912 50.7522 32.8912C49.2453 32.8912 47.8768 32.5527 46.656 31.8803C45.4353 31.208 44.4768 30.2447 43.7806 28.9906C43.0844 27.7413 42.7363 26.2917 42.7363 24.6418C42.7363 22.9919 43.0844 21.547 43.7806 20.2929C44.4768 19.0436 45.4353 18.0803 46.656 17.4032C47.8768 16.7309 49.2406 16.3923 50.7522 16.3923C52.7979 16.3923 54.3953 17.036 55.5445 18.3283V10.5557H60.189ZM54.4716 27.87C55.2441 27.0642 55.6351 25.9912 55.6351 24.637C55.6351 23.2875 55.2489 22.2098 54.4716 21.404C53.6991 20.5981 52.7263 20.1975 51.5533 20.1975C50.3612 20.1975 49.3788 20.5981 48.6063 21.404C47.8338 22.2098 47.4428 23.2827 47.4428 24.637C47.4428 25.9865 47.8291 27.0642 48.6063 27.87C49.3788 28.6759 50.3612 29.0765 51.5533 29.0765C52.7216 29.0765 53.6943 28.6759 54.4716 27.87ZM50.0941 12.3105H62.3635V14.9904H50.0941V12.3105Z" fill="#2671DD"></path><path d="M15.4064 47.5185C13.0889 46.0545 11.2769 43.9326 9.96559 41.1573C8.65426 38.3868 8.00098 35.0727 8.00098 31.2246C8.00098 27.3764 8.65426 24.0671 9.96559 21.2918C11.2769 18.5166 13.0889 16.3994 15.4064 14.9307C17.7239 13.4668 20.3609 12.7324 23.3221 12.7324C26.2833 12.7324 28.925 13.4668 31.2378 14.9307C33.5552 16.3946 35.3673 18.5166 36.6786 21.2918C37.9899 24.0671 38.6432 27.3764 38.6432 31.2246C38.6432 35.0727 37.9852 38.3821 36.6786 41.1573C35.3673 43.9326 33.5552 46.0545 31.2378 47.5185C28.9203 48.9824 26.2833 49.7167 23.3221 49.7167C20.3609 49.7167 17.7239 48.9871 15.4064 47.5185ZM28.4577 39.908C29.7023 38.034 30.3222 35.1395 30.3222 31.2246C30.3222 27.3097 29.6975 24.4152 28.4577 22.5459C27.2132 20.6719 25.5013 19.7373 23.3269 19.7373C21.181 19.7373 19.4882 20.6719 18.2437 22.5459C16.9991 24.42 16.3792 27.3144 16.3792 31.2293C16.3792 35.1443 16.9991 38.0387 18.2437 39.9127C19.4882 41.7867 21.181 42.7214 23.3269 42.7214C25.5013 42.7166 27.2132 41.782 28.4577 39.908Z" fill="#FFA510"></path><path d="M59.1519 10V32.0972H54.7172V30.2518C53.568 31.6394 51.899 32.3356 49.7151 32.3356C48.2082 32.3356 46.8397 31.997 45.6189 31.3247C44.3982 30.6523 43.4397 29.6891 42.7435 28.435C42.0473 27.1856 41.6992 25.736 41.6992 24.0861C41.6992 22.4362 42.0473 20.9914 42.7435 19.7372C43.4397 18.4879 44.3982 17.5247 45.6189 16.8475C46.8397 16.1752 48.2034 15.8366 49.7151 15.8366C51.7607 15.8366 53.3582 16.4804 54.5074 17.7726V10H59.1519ZM53.4345 27.3144C54.207 26.5085 54.598 25.4356 54.598 24.0813C54.598 22.7319 54.2117 21.6542 53.4345 20.8483C52.662 20.0424 51.6892 19.6419 50.5162 19.6419C49.324 19.6419 48.3417 20.0424 47.5692 20.8483C46.7967 21.6542 46.4057 22.7271 46.4057 24.0813C46.4057 25.4308 46.792 26.5085 47.5692 27.3144C48.3417 28.1202 49.324 28.5208 50.5162 28.5208C51.6844 28.5208 52.6572 28.1202 53.4345 27.3144ZM49.057 11.7548H61.3263V14.4347H49.057V11.7548Z" fill="#FFA510"></path></svg>