<svg width="64" height="64" viewBox="0 0 64 64" fill="none" xmlns="http://www.w3.org/2000/svg"><path d="M31.9798 63.9596C49.6418 63.9596 63.9596 49.7048 63.9596 32.1204C63.9596 14.5361 49.6418 0.28125 31.9798 0.28125C14.3178 0.28125 0 14.5361 0 32.1204C0 49.7048 14.3178 63.9596 31.9798 63.9596Z" fill="#FFE7C0"></path><path d="M31.1719 53.7089C42.5897 53.7089 51.8457 52.899 51.8457 51.8999C51.8457 50.9008 42.5897 50.0908 31.1719 50.0908C19.754 50.0908 10.498 50.9008 10.498 51.8999C10.498 52.899 19.754 53.7089 31.1719 53.7089Z" fill="#FFD18D"></path><path d="M53.582 32.402C53.582 23.196 53.582 14.0302 53.582 4.82412C53.582 2.01005 51.5227 0 48.6962 0C38.8035 0 28.9107 0 19.018 0C16.1511 0 14.0918 2.01005 14.0918 4.86432C14.0918 10.3719 14.0918 15.8392 14.0918 21.3467C14.0918 26.8543 14.0918 32.3216 14.0918 37.8291C14.0918 40.6834 16.1511 42.7337 19.018 42.7337C28.8703 42.7337 38.7631 42.7337 48.6155 42.7337C51.5227 42.7337 53.582 40.6834 53.582 37.7889C53.582 35.9799 53.582 34.2111 53.582 32.402Z" fill="#458CFF"></path><path d="M51.7246 34.1706C51.7246 24.9645 51.7246 15.7987 51.7246 6.59267C51.7246 3.7786 49.6653 1.76855 46.8388 1.76855C36.946 1.76855 27.0533 1.76855 17.1606 1.76855C14.2937 1.76855 12.2748 3.7786 12.2344 6.63288C12.2344 12.1404 12.2344 17.6077 12.2344 23.1153C12.2344 28.6228 12.2344 34.0902 12.2344 39.5977C12.2344 42.452 14.2937 44.5022 17.1606 44.5022C27.0129 44.5022 36.9057 44.5022 46.758 44.5022C49.6653 44.5022 51.7246 42.452 51.7246 39.5575C51.7246 37.7484 51.7246 35.9796 51.7246 34.1706Z" fill="#2671DD"></path><path d="M48.9385 36.4626C48.9385 27.2565 48.9385 18.0907 48.9385 8.88467C48.9385 6.0706 46.8792 4.06055 44.0527 4.06055C34.1599 4.06055 24.2672 4.06055 14.3744 4.06055C11.5075 4.06055 9.48862 6.0706 9.44824 8.92487C9.44824 14.4324 9.44824 19.8997 9.44824 25.4073C9.44824 30.9148 9.44824 36.3822 9.44824 41.8897C9.44824 44.744 11.5075 46.7942 14.3744 46.7942C24.2268 46.7942 34.1195 46.7942 43.9719 46.7942C46.8792 46.7942 48.9385 44.744 48.9385 41.8495C48.9385 40.0404 48.9385 38.2314 48.9385 36.4626Z" fill="#FFA510"></path><path d="M49.9072 35.5778C49.9072 26.3718 49.9072 17.2059 49.9072 7.9999C49.9072 5.18583 47.8479 3.17578 45.0214 3.17578C35.1287 3.17578 25.2359 3.17578 15.3432 3.17578C12.4763 3.17578 10.4574 5.18583 10.417 8.0401C10.417 13.5476 10.417 19.015 10.417 24.5225C10.417 30.0301 10.417 35.4974 10.417 41.0049C10.417 43.8592 12.4763 45.9095 15.3432 45.9095C25.1955 45.9095 35.0883 45.9095 44.9407 45.9095C47.8479 45.9095 49.9072 43.8592 49.9072 40.9647C49.9072 39.1557 49.9072 37.3868 49.9072 35.5778Z" fill="white"></path><path d="M19.8666 7.59753C19.9069 7.63773 19.9069 7.63773 19.9069 7.67794V8.92417C19.9069 8.96437 19.9069 9.00457 19.8666 9.00457C19.8262 9.00457 19.8262 9.04477 19.7858 9.04477H17.9284C17.888 9.04477 17.888 9.04477 17.888 9.08497V14.8739C17.888 14.9141 17.888 14.9543 17.8476 14.9543C17.8073 14.9945 17.8073 14.9945 17.7669 14.9945H16.2325C16.1921 14.9945 16.1517 14.9945 16.1517 14.9543C16.1114 14.9141 16.1114 14.9141 16.1114 14.8739V9.12517C16.1114 9.08497 16.1114 9.08497 16.071 9.08497H14.2539C14.2136 9.08497 14.1732 9.08497 14.1732 9.04477C14.1328 9.00457 14.1328 9.00457 14.1328 8.96437V7.71814C14.1328 7.67794 14.1328 7.63773 14.1732 7.63773C14.2136 7.59753 14.2136 7.59753 14.2539 7.59753H19.7858C19.8262 7.55733 19.8262 7.55733 19.8666 7.59753Z" fill="#FFA510"></path><path d="M24.5098 14.8742L23.2581 12.0601C23.2581 12.0199 23.2177 12.0199 23.1773 12.0199H22.4909C22.4505 12.0199 22.4505 12.0199 22.4505 12.0601V14.8742C22.4505 14.9144 22.4505 14.9546 22.4101 14.9546C22.3697 14.9948 22.3697 14.9948 22.3293 14.9948H20.795C20.7546 14.9948 20.7142 14.9948 20.7142 14.9546C20.6738 14.9144 20.6738 14.9144 20.6738 14.8742V7.67822C20.6738 7.63802 20.6738 7.59782 20.7142 7.59782C20.7546 7.59782 20.7546 7.55762 20.795 7.55762H23.9445C24.429 7.55762 24.8328 7.63802 25.1962 7.83902C25.5596 8.04003 25.8423 8.28124 26.0038 8.64304C26.2057 9.00485 26.2865 9.40686 26.2865 9.84908C26.2865 10.3315 26.1653 10.7335 25.923 11.0953C25.6808 11.4571 25.3577 11.6983 24.954 11.8591C24.9136 11.8591 24.9136 11.8993 24.9136 11.9395L26.3268 14.8742C26.3268 14.9144 26.3672 14.9144 26.3672 14.9546C26.3672 14.9948 26.3268 15.035 26.2461 15.035H24.6309C24.5906 14.9948 24.5502 14.9546 24.5098 14.8742ZM22.4505 9.12546V10.6531C22.4505 10.6933 22.4505 10.6933 22.4909 10.6933H23.6618C23.9445 10.6933 24.1464 10.6129 24.3079 10.4923C24.4694 10.3315 24.5502 10.1707 24.5502 9.92948C24.5502 9.68827 24.4694 9.48727 24.3079 9.32646C24.1464 9.16566 23.9445 9.08526 23.6618 9.08526H22.4909C22.4505 9.04505 22.4505 9.08526 22.4505 9.12546Z" fill="#FFA510"></path><path d="M32.4641 9.00485C32.4237 9.04505 32.4237 9.04505 32.3833 9.04505H29.0319C28.9915 9.04505 28.9915 9.04505 28.9915 9.08526V10.3717C28.9915 10.4119 28.9915 10.4119 29.0319 10.4119H31.1719C31.2123 10.4119 31.2527 10.4119 31.2527 10.4521C31.2931 10.4923 31.2931 10.4923 31.2931 10.5325V11.7787C31.2931 11.8189 31.2931 11.8591 31.2527 11.8591C31.2123 11.8993 31.2123 11.8993 31.1719 11.8993H29.0319C28.9915 11.8993 28.9915 11.8993 28.9915 11.9395V13.3466C28.9915 13.3868 28.9915 13.3868 29.0319 13.3868H32.3833C32.4237 13.3868 32.4641 13.3868 32.4641 13.427C32.5044 13.4672 32.5044 13.4672 32.5044 13.5074V14.8742C32.5044 14.9144 32.5044 14.9546 32.4641 14.9546C32.4237 14.9948 32.4237 14.9948 32.3833 14.9948H27.336C27.2956 14.9948 27.2552 14.9948 27.2552 14.9546C27.2148 14.9144 27.2148 14.9144 27.2148 14.8742V7.67822C27.2148 7.63802 27.2148 7.59782 27.2552 7.59782C27.2956 7.59782 27.2956 7.55762 27.336 7.55762H32.3833C32.4237 7.55762 32.4641 7.55762 32.4641 7.59782C32.5044 7.63802 32.5044 7.63802 32.5044 7.67822V8.92445C32.5044 8.96465 32.5044 9.00485 32.4641 9.00485Z" fill="#FFA510"></path><path d="M37.6333 7.59782C37.6737 7.55762 37.6737 7.55762 37.7141 7.55762H39.2484C39.2888 7.55762 39.3292 7.55762 39.3292 7.59782C39.3696 7.63802 39.3696 7.63802 39.3696 7.67822V14.8742C39.3696 14.9144 39.3696 14.9546 39.3292 14.9546C39.2888 14.9948 39.2888 14.9948 39.2484 14.9948H37.7948C37.7141 14.9948 37.6737 14.9546 37.6333 14.9144L35.2106 10.8541C35.2106 10.8139 35.1702 10.8139 35.1702 10.8139C35.1702 10.8139 35.1298 10.8139 35.1298 10.8541V14.834C35.1298 14.8742 35.1298 14.9144 35.0895 14.9144C35.0491 14.9546 35.0491 14.9546 35.0087 14.9546H33.5147C33.4743 14.9546 33.4339 14.9546 33.4339 14.9144C33.3936 14.8742 33.3936 14.8742 33.3936 14.834V7.67822C33.3936 7.63802 33.3936 7.59782 33.4339 7.59782C33.4743 7.59782 33.4743 7.55762 33.5147 7.55762H34.9683C35.0491 7.55762 35.0895 7.59782 35.1298 7.63802L37.5526 11.6983C37.5526 11.7385 37.5929 11.7385 37.5929 11.7385C37.5929 11.7385 37.6333 11.7385 37.6333 11.6983V7.71842C37.5929 7.63802 37.6333 7.59782 37.6333 7.59782Z" fill="#FFA510"></path><path d="M40.4603 14.9546C40.4199 14.9144 40.4199 14.9144 40.4199 14.8742V7.67822C40.4199 7.63802 40.4199 7.59782 40.4603 7.59782C40.5007 7.59782 40.5007 7.55762 40.5411 7.55762H43.2464C43.8117 7.55762 44.2963 7.63802 44.7 7.83902C45.1442 8.04003 45.4672 8.32144 45.7095 8.64304C45.9518 9.00485 46.0729 9.40686 46.0729 9.84907V12.6229C46.0729 13.0652 45.9518 13.5074 45.7095 13.829C45.4672 14.1908 45.1442 14.4722 44.7 14.633C44.2559 14.834 43.7713 14.9144 43.2464 14.9144H40.5411C40.5007 14.9948 40.4603 14.9546 40.4603 14.9546ZM42.237 13.4672H43.3272C43.6098 13.4672 43.8521 13.3868 44.0136 13.1456C44.1751 12.9446 44.2963 12.6631 44.2963 12.3415V10.1707C44.2963 9.84907 44.2155 9.56767 44.0136 9.36666C43.8521 9.16566 43.6098 9.04505 43.2868 9.04505H42.1966C42.1562 9.04505 42.1562 9.04505 42.1562 9.08526V13.3868C42.1966 13.4672 42.1966 13.4672 42.237 13.4672Z" fill="#FFA510"></path><path d="M46.0716 19.457H14.0918V21.3465H46.0716V19.457Z" fill="#FFA510"></path><path d="M46.0716 22.6729H14.0918V24.5623H46.0716V22.6729Z" fill="#FFA510"></path><path d="M46.0716 25.8496H14.0918V27.7391H46.0716V25.8496Z" fill="#FFA510"></path><path d="M46.0716 29.0254H14.0918V30.9148H46.0716V29.0254Z" fill="#FFA510"></path><path d="M46.0716 32.2412H14.0918V34.1307H46.0716V32.2412Z" fill="#FFA510"></path><path d="M46.0716 35.417H14.0918V37.3064H46.0716V35.417Z" fill="#FFA510"></path><path d="M46.0716 38.5928H14.0918V40.4822H46.0716V38.5928Z" fill="#FFA510"></path></svg>