<svg width="64" height="64" viewBox="0 0 64 64" fill="none" xmlns="http://www.w3.org/2000/svg"><path d="M31.98 64C49.642 64 63.9599 49.6731 63.9599 32C63.9599 14.3269 49.642 0 31.98 0C14.3179 0 0 14.3269 0 32C0 49.6731 14.3179 64 31.98 64Z" fill="#FFE7C0"></path><path d="M31.1387 53.6539C42.5593 53.6539 51.8175 52.846 51.8175 51.8494C51.8175 50.8528 42.5593 50.0449 31.1387 50.0449C19.7182 50.0449 10.46 50.8528 10.46 51.8494C10.46 52.846 19.7182 53.6539 31.1387 53.6539Z" fill="#FFD18D"></path><path d="M52.2183 44.5515H8.81691C8.49631 44.5515 8.25586 44.3109 8.25586 43.9901V10.7069C8.25586 10.3861 8.49631 10.1455 8.81691 10.1455H52.2183C52.5389 10.1455 52.7793 10.3861 52.7793 10.7069V43.9901C52.7793 44.3109 52.5389 44.5515 52.2183 44.5515Z" fill="#FFA510"></path><path d="M51.1357 16H9.93848V42.8672H51.1357V16Z" fill="#F6F6F6"></path><path d="M14.9879 21.6543H12.1826V24.4613H14.9879V21.6543Z" fill="#FFA510"></path><path d="M19.8375 21.6543H17.0322V24.4613H19.8375V21.6543Z" fill="#FFA510"></path><path d="M24.6861 21.6543H21.8809V24.4613H24.6861V21.6543Z" fill="#FFA510"></path><path d="M29.4947 21.6543H26.6895V24.4613H29.4947V21.6543Z" fill="#FFA510"></path><path d="M34.3443 21.6543H31.5391V24.4613H34.3443V21.6543Z" fill="#FFA510"></path><path d="M39.193 21.6543H36.3877V24.4613H39.193V21.6543Z" fill="#FFA510"></path><path d="M44.0426 21.6543H41.2373V24.4613H44.0426V21.6543Z" fill="#FFA510"></path><path d="M48.8512 21.6543H46.0459V24.4613H48.8512V21.6543Z" fill="#FFA510"></path><path d="M14.9879 26.3057H12.1826V29.1127H14.9879V26.3057Z" fill="#FFA510"></path><path d="M19.8375 26.3057H17.0322V29.1127H19.8375V26.3057Z" fill="#FFA510"></path><path d="M24.6861 26.3057H21.8809V29.1127H24.6861V26.3057Z" fill="#FFA510"></path><path d="M29.4947 26.3057H26.6895V29.1127H29.4947V26.3057Z" fill="#FFA510"></path><path d="M34.3443 26.3057H31.5391V29.1127H34.3443V26.3057Z" fill="#FFA510"></path><path d="M39.193 26.3057H36.3877V29.1127H39.193V26.3057Z" fill="#FFA510"></path><path d="M44.0426 26.3057H41.2373V29.1127H44.0426V26.3057Z" fill="#FFA510"></path><path d="M48.8512 26.3057H46.0459V29.1127H48.8512V26.3057Z" fill="#FFA510"></path><path d="M14.9879 30.998H12.1826V33.8051H14.9879V30.998Z" fill="#FFA510"></path><path d="M19.8375 30.998H17.0322V33.8051H19.8375V30.998Z" fill="#FFA510"></path><path d="M24.6861 30.998H21.8809V33.8051H24.6861V30.998Z" fill="#FFA510"></path><path d="M29.4947 30.998H26.6895V33.8051H29.4947V30.998Z" fill="#FFA510"></path><path d="M34.3443 30.998H31.5391V33.8051H34.3443V30.998Z" fill="#FFA510"></path><path d="M39.193 30.998H36.3877V33.8051H39.193V30.998Z" fill="#FFA510"></path><path d="M44.0426 30.998H41.2373V33.8051H44.0426V30.998Z" fill="#FFA510"></path><path d="M48.8512 30.998H46.0459V33.8051H48.8512V30.998Z" fill="#FFA510"></path><path d="M14.9879 35.6484H12.1826V38.4555H14.9879V35.6484Z" fill="#FFA510"></path><path d="M19.8375 35.6484H17.0322V38.4555H19.8375V35.6484Z" fill="#FFA510"></path><path d="M24.6861 35.6484H21.8809V38.4555H24.6861V35.6484Z" fill="#FFA510"></path><path d="M29.4947 35.6484H26.6895V38.4555H29.4947V35.6484Z" fill="#FFA510"></path><path d="M34.3443 35.6484H31.5391V38.4555H34.3443V35.6484Z" fill="#FFA510"></path><path d="M39.193 35.6484H36.3877V38.4555H39.193V35.6484Z" fill="#FFA510"></path><path d="M44.0426 35.6484H41.2373V38.4555H44.0426V35.6484Z" fill="#FFA510"></path><path d="M48.8512 35.6484H46.0459V38.4555H48.8512V35.6484Z" fill="#FFA510"></path><path d="M51.1356 49.925C58.2403 49.925 63.9997 44.1619 63.9997 37.0528C63.9997 29.9437 58.2403 24.1807 51.1356 24.1807C44.0309 24.1807 38.2715 29.9437 38.2715 37.0528C38.2715 44.1619 44.0309 49.925 51.1356 49.925Z" fill="#458CFF"></path><path d="M47.9702 30.7172C47.7298 29.9152 47.289 29.3538 46.4073 29.2335C49.6935 27.3488 54.4624 27.3889 57.9089 30.8776C61.2752 34.3262 61.4755 39.6194 58.4298 43.3488C55.3841 47.0781 50.1343 47.9202 46.1268 45.3538C42.6002 43.1081 40.0354 38.0956 43.0811 32.3613C42.7204 32.0405 42.3597 31.6796 41.959 31.3588C41.7987 31.2385 41.7987 31.0781 41.8387 30.9578C41.8788 30.7974 41.999 30.7172 42.1193 30.7172C42.8005 30.637 43.4818 30.5167 44.1631 30.4766C44.8844 30.4365 45.5657 30.4766 46.2871 30.4766C46.5676 30.4766 46.7279 30.5969 46.7279 30.8776C46.768 31.1182 46.768 31.3989 46.768 31.6395C46.768 32.7222 46.7279 33.845 46.5275 34.9277C46.4474 35.2886 46.2069 35.3688 45.9264 35.1282C45.5657 34.8475 45.2451 34.5668 44.8844 34.246C44.8043 34.3663 44.7241 34.4465 44.644 34.5267C44.1631 35.2084 43.9627 35.9703 43.8826 36.7723C43.8826 36.9327 43.8826 37.053 43.8425 37.2134C43.602 38.0956 43.8826 38.8976 44.123 39.7397C44.3635 40.5818 44.8043 41.3437 45.3653 42.0254C45.9264 42.7071 46.5676 43.2686 47.289 43.7498C51.8174 46.5167 57.7085 43.7899 58.51 38.4966C59.1111 34.5267 56.3059 30.7172 52.3785 30.1157C50.9358 29.8751 49.5332 30.0355 48.2107 30.6771C48.0905 30.6771 48.0504 30.6771 47.9702 30.7172Z" fill="#F6F6F6"></path><path d="M49.6133 37.414C49.6133 36.4917 50.2144 35.9303 51.056 36.0105C51.2163 36.0105 51.2964 35.9704 51.4167 35.8902C52.3785 34.9679 53.3803 34.0456 54.3421 33.1233C54.5425 32.9629 54.7429 32.9228 54.9833 33.003C55.1837 33.0832 55.3039 33.2035 55.2639 33.404C55.2639 33.5644 55.1837 33.7649 55.0635 33.8852C54.2219 34.8877 53.3403 35.8902 52.4586 36.8927C52.3785 37.013 52.3384 37.0932 52.3384 37.2536C52.3785 37.6546 52.2582 38.0155 52.0178 38.3363C51.9777 38.4165 51.9376 38.5368 51.9376 38.617C51.8575 39.5794 51.8174 40.5418 51.7773 41.5042C51.7373 42.0255 51.2964 42.3063 50.8155 42.1058C50.6152 42.0255 50.535 41.8651 50.4949 41.6646C50.4148 40.6621 50.3346 39.6997 50.2144 38.6972C50.2144 38.5769 50.1343 38.4967 50.0541 38.4566C49.7335 38.216 49.6534 37.7749 49.6133 37.414Z" fill="#F6F6F6"></path><path d="M43.7216 13.9548C42.5995 13.9548 41.6777 13.0325 41.6777 11.9097V9.14277C41.6777 8.01996 42.5995 7.09766 43.7216 7.09766C44.8437 7.09766 45.7654 8.01996 45.7654 9.14277V11.9097C45.7654 13.0325 44.8437 13.9548 43.7216 13.9548Z" fill="#FFE7C0"></path><path d="M44.7638 13.273H42.72C42.5597 13.273 42.3994 13.1527 42.3994 12.9522V8.14014C42.3994 7.97974 42.5196 7.81934 42.72 7.81934H44.7638C44.9241 7.81934 45.0844 7.93964 45.0844 8.14014V12.9522C45.0444 13.1126 44.9241 13.273 44.7638 13.273Z" fill="#458CFF"></path><path d="M16.3104 13.9548C15.1883 13.9548 14.2666 13.0325 14.2666 11.9097V9.14277C14.2666 8.01996 15.1883 7.09766 16.3104 7.09766C17.4325 7.09766 18.3543 8.01996 18.3543 9.14277V11.9097C18.3142 13.0325 17.4325 13.9548 16.3104 13.9548Z" fill="#FFE7C0"></path><path d="M17.3127 13.273H15.2688C15.1085 13.273 14.9482 13.1527 14.9482 12.9522V8.14014C14.9482 7.97974 15.0685 7.81934 15.2688 7.81934H17.3127C17.473 7.81934 17.6333 7.93964 17.6333 8.14014V12.9522C17.6333 13.1126 17.5131 13.273 17.3127 13.273Z" fill="#458CFF"></path></svg>