<svg width="64" height="64" viewBox="0 0 64 64" fill="none" xmlns="http://www.w3.org/2000/svg"><g clip-path="url(#commitment__icon2)"><path d="M31.9208 64C49.5502 64 63.8416 49.6731 63.8416 32C63.8416 14.3269 49.5502 0 31.9208 0C14.2914 0 0 14.3269 0 32C0 49.6731 14.2914 64 31.9208 64Z" fill="#FFE7C0"></path><path d="M31.9212 53.677C45.1104 53.677 55.8024 52.8594 55.8024 51.8507C55.8024 50.8421 45.1104 50.0244 31.9212 50.0244C18.732 50.0244 8.04004 50.8421 8.04004 51.8507C8.04004 52.8594 18.732 53.677 31.9212 53.677Z" fill="#FFD18D"></path><path d="M50.4162 3.65315V48.9534C50.4162 49.9062 49.6637 50.7003 48.7132 50.7003H14.8518C13.941 50.7003 13.1885 49.9062 13.1885 48.9534V3.65315C13.1885 2.70029 13.941 1.90625 14.8518 1.90625H48.7132C49.6637 1.90625 50.4162 2.66059 50.4162 3.65315Z" fill="#FFA510"></path><path d="M51.762 47.1668C58.5207 47.1668 63.9997 41.6743 63.9997 34.8988C63.9997 28.1234 58.5207 22.6309 51.762 22.6309C45.0034 22.6309 39.5244 28.1234 39.5244 34.8988C39.5244 41.6743 45.0034 47.1668 51.762 47.1668Z" fill="#FF7712"></path><path d="M51.7628 46.293C58.0403 46.293 63.1292 41.1915 63.1292 34.8984C63.1292 28.6054 58.0403 23.5039 51.7628 23.5039C45.4854 23.5039 40.3965 28.6054 40.3965 34.8984C40.3965 41.1915 45.4854 46.293 51.7628 46.293Z" fill="white"></path><path d="M49.8214 38.1944C49.9798 38.5517 50.0986 38.909 50.2174 39.2267C50.257 39.2664 50.257 39.3458 50.2967 39.3855C50.4155 39.6237 50.3759 39.8619 50.2174 40.0604C50.1382 40.1795 50.0194 40.2589 49.9402 40.378C49.7818 40.5368 49.663 40.5368 49.5046 40.378C49.3462 40.2589 49.2273 40.1001 49.0689 39.9413C48.3165 39.187 47.564 38.3929 46.7719 37.6386C46.5739 37.4401 46.5739 37.321 46.7719 37.1224C46.8511 37.0033 46.9699 36.9239 47.0491 36.8445C47.2471 36.646 47.4848 36.646 47.7224 36.7651C48.0788 36.8842 48.3957 37.043 48.7521 37.1621C48.8313 37.2018 48.8709 37.2018 48.9105 37.0827C48.9897 36.7651 49.1877 36.4872 49.3858 36.249C49.861 35.7329 50.2967 35.2167 50.7719 34.7006C50.8511 34.6212 50.8511 34.5815 50.7719 34.5021C50.6927 34.4624 50.6531 34.383 50.6135 34.3433C50.3363 34.0257 49.9798 33.8272 49.6234 33.6286C48.6333 33.1125 47.6828 32.6361 46.6927 32.12C46.6531 32.0803 46.6135 32.0803 46.5739 32.0406C46.3363 31.8817 46.2967 31.7229 46.4155 31.4847C46.5739 31.2465 46.7719 31.0083 46.9699 30.7701C47.0887 30.6113 47.2471 30.6113 47.4452 30.651C49.267 31.0877 51.1283 31.5641 52.9501 32.0009C53.2273 32.0803 53.2273 32.0803 53.4254 31.842C54.059 31.1274 54.7323 30.4128 55.4056 29.7378C55.6828 29.4202 56.0788 29.2217 56.4749 29.1423C57.0293 29.0232 57.3066 29.4202 57.2273 29.976C57.1481 30.4525 56.9105 30.8495 56.5937 31.1671C55.96 31.842 55.3264 32.5567 54.6531 33.2316C54.5739 33.311 54.5739 33.3904 54.5739 33.4698C55.0887 35.4152 55.6036 37.3607 56.1184 39.2664C56.158 39.4649 56.158 39.6634 55.9996 39.8222C55.8016 40.0207 55.6036 40.2192 55.4056 40.378C55.1679 40.5368 54.9699 40.4971 54.8511 40.2589C54.6135 39.8619 54.4155 39.4252 54.1778 38.9885C53.7422 38.1944 53.3462 37.3607 52.9105 36.5666C52.8709 36.5269 52.8709 36.4872 52.8313 36.4475C52.6729 36.2887 52.5145 36.1299 52.3561 35.9711C52.2768 35.8917 52.2372 35.8917 52.158 35.9711C51.6828 36.4475 51.2471 36.9636 50.7719 37.4401C50.5343 37.718 50.257 37.9165 49.9006 38.0356C49.861 38.1547 49.8214 38.1944 49.8214 38.1944Z" fill="#458CFF"></path><path d="M23.2868 9.21094H19.5244V12.9826H23.2868V9.21094Z" fill="white"></path><path d="M29.5837 9.21094H25.8213V12.9826H29.5837V9.21094Z" fill="white"></path><path d="M23.2868 15.0078H19.5244V18.7795H23.2868V15.0078Z" fill="white"></path><path d="M29.5837 15.0078H25.8213V18.7795H29.5837V15.0078Z" fill="white"></path><path d="M23.2868 20.7646H19.5244V24.5364H23.2868V20.7646Z" fill="white"></path><path d="M29.5837 20.7646H25.8213V24.5364H29.5837V20.7646Z" fill="white"></path><path d="M38.1784 9.21094H34.416V12.9826H38.1784V9.21094Z" fill="white"></path><path d="M44.5153 9.21094H40.7529V12.9826H44.5153V9.21094Z" fill="white"></path><path d="M38.1784 15.0078H34.416V18.7795H38.1784V15.0078Z" fill="white"></path><path d="M44.5153 15.0078H40.7529V18.7795H44.5153V15.0078Z" fill="white"></path><path d="M38.1784 20.7646H34.416V24.5364H38.1784V20.7646Z" fill="white"></path><path d="M44.5153 20.7646H40.7529V24.5364H44.5153V20.7646Z" fill="white"></path><path d="M37.0689 41.9659V41.9262V41.688H37.0293C36.8709 38.9089 34.5739 36.6855 31.762 36.6855C28.9105 36.6855 26.6135 38.9089 26.4947 41.688H26.4551V50.7004H37.0689V42.0056C37.0689 41.9659 37.0689 41.9659 37.0689 41.9659Z" fill="white"></path><path d="M17.6633 14.4124V50.1841C17.6633 50.3032 17.5841 50.3826 17.4653 50.3826H7.12868C7.00987 50.3826 6.93066 50.3032 6.93066 50.1841V14.4124C6.93066 14.2933 7.00987 14.2139 7.12868 14.2139H17.4653C17.5841 14.2139 17.6633 14.2933 17.6633 14.4124Z" fill="#458CFF"></path><path d="M11.2474 21.0024C10.9305 20.8436 10.6929 20.6054 10.5345 20.3275C10.3761 20.0496 10.2969 19.6922 10.2969 19.3349V17.6674C10.2969 17.3101 10.3761 16.9528 10.5345 16.6749C10.6929 16.397 10.9305 16.1587 11.2474 15.9999C11.5642 15.8411 11.9206 15.7617 12.3167 15.7617C12.7127 15.7617 13.0692 15.8411 13.386 15.9999C13.7028 16.1587 13.9404 16.3573 14.0989 16.6352C14.2573 16.9131 14.3365 17.2307 14.3365 17.588C14.3365 17.6277 14.3365 17.6277 14.2969 17.6674C14.2573 17.7071 14.2573 17.7071 14.2177 17.7071L13.1484 17.7865C13.0692 17.7865 13.0692 17.7468 13.0692 17.7071C13.0692 17.4689 12.9899 17.2704 12.8711 17.1513C12.7523 17.0322 12.5543 16.9528 12.3167 16.9528C12.0791 16.9528 11.881 16.9131 11.7622 17.0719C11.6038 17.2307 11.5642 17.3895 11.5642 17.6277V19.3746C11.5642 19.6128 11.6434 19.8113 11.7622 19.9305C11.9206 20.0893 12.0791 20.129 12.3167 20.129C12.5543 20.129 12.7523 20.0496 12.8711 19.9305C13.0295 19.7716 13.0692 19.6128 13.0692 19.3746C13.0692 19.3349 13.1088 19.2952 13.1484 19.2952L14.2177 19.3349C14.2573 19.3349 14.2573 19.3349 14.2969 19.3746C14.3365 19.4143 14.3365 19.4143 14.3365 19.4143C14.3365 19.7716 14.2573 20.0893 14.0989 20.3672C13.9404 20.6451 13.7028 20.8436 13.386 21.0024C13.0692 21.1612 12.7127 21.2406 12.3167 21.2406C11.9206 21.2406 11.5642 21.1612 11.2474 21.0024Z" fill="white"></path><path d="M11.2088 28.0298C10.892 27.8709 10.6544 27.6327 10.496 27.3151C10.3376 26.9975 10.2188 26.6799 10.2188 26.2829V24.7742C10.2188 24.3772 10.298 24.0595 10.496 23.7419C10.6544 23.4243 10.892 23.2258 11.2088 23.0273C11.5257 22.8685 11.8821 22.7891 12.2782 22.7891C12.6742 22.7891 13.0702 22.8685 13.3871 23.0273C13.7039 23.1861 13.9415 23.4243 14.0999 23.7419C14.2584 24.0595 14.3772 24.3772 14.3772 24.7742V26.2829C14.3772 26.6799 14.298 27.0372 14.0999 27.3151C13.9415 27.6327 13.6643 27.8312 13.3871 28.0298C13.0702 28.1886 12.7138 28.268 12.2782 28.268C11.8821 28.268 11.5257 28.1886 11.2088 28.0298ZM12.8722 26.9578C13.0306 26.799 13.1098 26.6005 13.1098 26.3226V24.7345C13.1098 24.4566 13.0306 24.258 12.8722 24.0992C12.7138 23.9404 12.5158 23.861 12.2782 23.861C12.0405 23.861 11.8425 23.9404 11.6841 24.0992C11.5257 24.258 11.4465 24.4566 11.4465 24.7345V26.3226C11.4465 26.6005 11.5257 26.799 11.6841 26.9578C11.8425 27.1166 12.0405 27.196 12.2782 27.196C12.5554 27.196 12.7534 27.1166 12.8722 26.9578Z" fill="white"></path><path d="M13.4653 29.8561H14.5346C14.5742 29.8561 14.5742 29.8561 14.6138 29.8958C14.6534 29.9355 14.6534 29.9355 14.6534 29.9752V35.1365C14.6534 35.1762 14.6534 35.1762 14.6138 35.2159C14.5742 35.2556 14.5742 35.2556 14.5346 35.2556H13.4653C13.4257 35.2556 13.4257 35.2556 13.3861 35.2159C13.3465 35.1762 13.3465 35.1762 13.3465 35.1365V32.0794C13.3465 32.0397 13.3465 32.0397 13.3465 32.0397C13.3465 32.0397 13.3069 32.0397 13.3069 32.0794L12.6732 33.072C12.6336 33.1117 12.6336 33.1514 12.5544 33.1514H11.9999C11.9603 33.1514 11.9207 33.1117 11.8811 33.072L11.2079 32L11.1683 31.9603C11.1683 31.9603 11.1683 31.9603 11.1683 32V35.0968C11.1683 35.1365 11.1683 35.1365 11.1287 35.1762C11.0891 35.2159 11.0891 35.2159 11.0494 35.2159H9.98014C9.94054 35.2159 9.94054 35.2159 9.90093 35.1762C9.86133 35.1365 9.86133 35.1365 9.86133 35.0968V29.9355C9.86133 29.8958 9.86133 29.8958 9.90093 29.8561C9.94054 29.8164 9.94054 29.8164 9.98014 29.8164H11.0494C11.0891 29.8164 11.1287 29.8561 11.1683 29.8958L12.2376 31.5633C12.2376 31.603 12.2772 31.603 12.2772 31.5633L13.3069 29.8958C13.3861 29.8561 13.4257 29.8561 13.4653 29.8561Z" fill="white"></path><path d="M13.6636 39.4638C14.1389 39.702 14.3765 40.099 14.3765 40.6945C14.3765 41.2107 14.2181 41.568 13.8617 41.8459C13.5052 42.0841 13.0696 42.2032 12.4755 42.2032H10.4557C10.4161 42.2032 10.4161 42.2032 10.3765 42.1635C10.3369 42.1238 10.3369 42.1238 10.3369 42.0841V36.9228C10.3369 36.8831 10.3369 36.8831 10.3765 36.8434C10.4161 36.8037 10.4161 36.8037 10.4557 36.8037H12.4359C13.0696 36.8037 13.5052 36.9228 13.8221 37.161C14.1389 37.3992 14.2973 37.7566 14.2973 38.3124C14.2973 38.8285 14.0993 39.1858 13.7033 39.3844C13.624 39.4241 13.624 39.4241 13.6636 39.4638ZM11.6042 37.9551V38.9079C11.6042 38.9476 11.6042 38.9476 11.6438 38.9476H12.3963C12.5943 38.9476 12.7528 38.9079 12.8716 38.8285C12.9904 38.7491 13.03 38.63 13.03 38.4315C13.03 38.2727 12.9904 38.1139 12.8716 38.0345C12.7528 37.9551 12.5943 37.9154 12.3963 37.9154L11.6042 37.9551C11.6042 37.9154 11.6042 37.9551 11.6042 37.9551ZM12.9112 40.9327C13.03 40.8533 13.0696 40.6945 13.0696 40.5357C13.0696 40.3769 13.03 40.2181 12.9112 40.1387C12.7924 40.0593 12.6339 39.9799 12.4359 39.9799H11.6042C11.5646 39.9799 11.5646 39.9799 11.5646 40.0196V41.0518C11.5646 41.0916 11.5646 41.0915 11.6042 41.0915H12.4359C12.6339 41.0915 12.7924 41.0518 12.9112 40.9327Z" fill="white"></path><path d="M11.2088 49.0327C10.892 48.8739 10.6544 48.6357 10.496 48.318C10.3376 48.0004 10.2188 47.6828 10.2188 47.2858V45.7771C10.2188 45.3801 10.298 45.0625 10.496 44.7448C10.6544 44.4272 10.892 44.2287 11.2088 44.0302C11.5257 43.8317 11.8821 43.792 12.2782 43.792C12.6742 43.792 13.0702 43.8714 13.3871 44.0302C13.7039 44.189 13.9415 44.4272 14.0999 44.7448C14.2584 45.0625 14.3772 45.3801 14.3772 45.7771V47.2858C14.3772 47.6828 14.298 48.0401 14.0999 48.318C13.9415 48.6357 13.6643 48.8342 13.3871 49.0327C13.0702 49.1915 12.7138 49.2709 12.2782 49.2709C11.8821 49.2709 11.5257 49.1915 11.2088 49.0327ZM12.8722 47.9607C13.0306 47.8019 13.1098 47.6034 13.1098 47.3255V45.7374C13.1098 45.4595 13.0306 45.261 12.8722 45.1022C12.7138 44.9434 12.5158 44.864 12.2782 44.864C12.0405 44.864 11.8425 44.9434 11.6841 45.1022C11.5257 45.261 11.4465 45.4595 11.4465 45.7374V47.3255C11.4465 47.6034 11.5257 47.8019 11.6841 47.9607C11.8425 48.1195 12.0405 48.1989 12.2782 48.1989C12.5554 48.1989 12.7534 48.1195 12.8722 47.9607Z" fill="white"></path></g><defs><clipPath id="commitment__icon2"><rect width="64" height="64" fill="white"></rect></clipPath></defs></svg>