<svg width="64" height="64" viewBox="0 0 64 64" fill="none" xmlns="http://www.w3.org/2000/svg"><path d="M31.9799 63.9598C49.6419 63.9598 63.9598 49.6419 63.9598 31.9799C63.9598 14.3179 49.6419 0 31.9799 0C14.3179 0 0 14.3179 0 31.9799C0 49.6419 14.3179 63.9598 31.9799 63.9598Z" fill="#FFE7C0"></path><path d="M31.9806 55.2008C43.4076 55.2008 52.6711 54.3914 52.6711 53.3929C52.6711 52.3944 43.4076 51.585 31.9806 51.585C20.5535 51.585 11.29 52.3944 11.29 53.3929C11.29 54.3914 20.5535 55.2008 31.9806 55.2008Z" fill="#FFD18D"></path><path d="M43.9114 1.52637H23.1807V37.2426H43.9114V1.52637Z" fill="#458CFF"></path><path d="M33.2652 47.8488L49.7372 32.0195H16.7529L33.2652 47.8488Z" fill="#458CFF"></path><path d="M41.4211 1.52637H20.6904V37.2426H41.4211V1.52637Z" fill="#FFA510"></path><path d="M30.7339 47.8488L47.206 32.0195H14.2217L30.7339 47.8488Z" fill="#FFA510"></path><path d="M24.0653 16.9946C23.4627 16.633 22.9805 16.1509 22.619 15.5483C22.2574 14.9456 22.0967 14.3028 22.0967 13.5797C22.0967 12.8565 22.2574 12.2137 22.619 11.6111C22.9805 11.0084 23.4627 10.5263 24.0653 10.2049C24.6679 9.84332 25.3509 9.68262 26.0741 9.68262C26.7972 9.68262 27.4802 9.84332 28.0829 10.2049C28.6855 10.5665 29.1676 11.0486 29.5292 11.6512C29.8908 12.2539 30.0515 12.8967 30.0515 13.6198C30.0515 14.343 29.8908 14.9858 29.5292 15.5885C29.1676 16.1911 28.6855 16.6732 28.0829 17.0348C27.4802 17.3964 26.7972 17.5571 26.0741 17.5571C25.3509 17.5169 24.6679 17.3562 24.0653 16.9946ZM27.199 14.7448C27.5204 14.4234 27.6811 14.0618 27.6811 13.5797C27.6811 13.1377 27.5204 12.736 27.199 12.4146C26.8776 12.0932 26.516 11.9325 26.0741 11.9325C25.6321 11.9325 25.2304 12.0932 24.9492 12.4146C24.6278 12.736 24.4671 13.1377 24.4671 13.5797C24.4671 14.0216 24.6278 14.4234 24.9492 14.7448C25.2706 15.0662 25.6321 15.2269 26.0741 15.2269C26.516 15.2269 26.8776 15.0662 27.199 14.7448ZM24.7483 26.5966C24.7081 26.5163 24.7081 26.4359 24.7885 26.3556L33.8682 10.0442C33.9485 9.92367 34.0691 9.84332 34.2298 9.84332H36.4394C36.56 9.84332 36.6403 9.8835 36.6403 9.92367C36.6805 10.004 36.6805 10.0844 36.6001 10.1647L27.5606 26.5163C27.4802 26.6368 27.3597 26.7171 27.199 26.7171H24.9893C24.8688 26.677 24.7885 26.6368 24.7483 26.5966ZM33.6271 26.3556C33.0245 25.994 32.5424 25.5119 32.1808 24.9092C31.8192 24.3066 31.6585 23.6638 31.6585 22.9406C31.6585 22.2175 31.8192 21.5746 32.1808 20.972C32.5424 20.3694 33.0245 19.8873 33.6271 19.5257C34.2298 19.1641 34.9127 19.0034 35.6359 19.0034C36.3591 19.0034 37.0019 19.1641 37.6045 19.5257C38.2072 19.8873 38.6893 20.3694 39.0509 20.972C39.4124 21.5746 39.5731 22.2175 39.5731 22.9406C39.5731 23.6638 39.4124 24.3066 39.0509 24.9092C38.6893 25.5119 38.2072 25.994 37.6045 26.3556C37.0019 26.7171 36.3591 26.8778 35.6359 26.8778C34.8726 26.8778 34.2298 26.7171 33.6271 26.3556ZM36.7608 24.1057C37.0822 23.7843 37.2028 23.3826 37.2028 22.9406C37.2028 22.4987 37.0421 22.0969 36.7207 21.8157C36.3993 21.4943 36.0377 21.3336 35.5957 21.3336C35.1538 21.3336 34.752 21.4943 34.4306 21.8157C34.1092 22.1371 33.9485 22.4987 33.9485 22.9406C33.9485 23.4227 34.1092 23.7843 34.4306 24.1057C34.752 24.4271 35.1136 24.5878 35.5957 24.5878C36.0778 24.5878 36.4394 24.4271 36.7608 24.1057Z" fill="white"></path></svg>