<svg stroke-width="0" fill="#fff" height="24" stroke="currentColor" stroke-linecap="round" viewBox="0 0 24 24" width="24" xmlns="http://www.w3.org/2000/svg" xmlns:xlink="http://www.w3.org/1999/xlink"><path d="M15.0621204,16.4934476 L15.0621204,16.4934476 C13.6597496,17.5834526 11.9256074,18.1936194 10.0968097,18.1936194 C5.62489,18.1936194 2,14.5684355 2,10.0968097 C2,5.62462119 5.62462119,2 10.0968097,2 C14.5684355,2 18.1936194,5.62489 18.1936194,10.0968097 C18.1936194,11.9254725 17.5835426,13.6594938 16.4934131,15.0620858 L21.7035624,20.2722352 C22.0988125,20.6674853 22.0988125,21.3083123 21.7035624,21.7035624 C21.3083123,22.0988125 20.6674853,22.0988125 20.2722352,21.7035624 L15.0621204,16.4934476 Z M14.3909337,14.391398 C15.5229022,13.258695 16.1694169,11.730041 16.1694169,10.0968097 C16.1694169,6.74286286 13.4505361,4.02420242 10.0968097,4.02420242 C6.74255731,4.02420242 4.02420242,6.74255731 4.02420242,10.0968097 C4.02420242,13.4505361 6.74286286,16.1694169 10.0968097,16.1694169 C11.730041,16.1694169 13.258695,15.5229022 14.3909337,14.391398 Z"></path></svg>