<svg width="51" height="50" viewBox="0 0 51 50" fill="none" xmlns="http://www.w3.org/2000/svg">
<g clip-path="url(#clip0)">
<path d="M46.6584 28.888L43.0589 42.0131C42.927 42.4954 42.5971 42.9064 42.1559 43.1407C41.8913 43.2814 41.5965 43.3525 41.3017 43.3525C41.1035 43.3525 40.9043 43.3203 40.7149 43.2559L25.4997 38.0045L1.90107 29.8594L1 27.115C1 27.115 13.6623 27.0457 25.4996 27.0145C35.6919 26.9881 45.2722 26.99 45.6334 27.0887C46.4134 27.3025 46.8723 28.108 46.6584 28.888Z" fill="#FFD591"/>
<path d="M46.6582 28.888L43.0587 42.0131C42.9269 42.4954 42.5969 42.9063 42.1557 43.1407C41.8911 43.2813 41.5963 43.3525 41.3015 43.3525C41.1033 43.3525 40.9041 43.3203 40.7147 43.2559L25.4995 38.0045V27.0145C35.6918 26.9882 45.2721 26.9901 45.6333 27.0888C46.4132 27.3025 46.8721 28.108 46.6582 28.888Z" fill="#FFC069"/>
<path d="M50.5 8.70059V27.9117C50.5 29.0442 49.5784 29.9648 48.4469 29.9648H2.55312C1.42061 29.9648 0.5 29.0442 0.5 27.9117V8.70059C0.5 7.56807 1.42061 6.64746 2.55312 6.64746H48.4469C49.5784 6.64746 50.5 7.56807 50.5 8.70059Z" fill="#FFA940"/>
<path d="M17.5083 24.5046C17.0223 24.5046 16.5875 24.1628 16.4882 23.6669L15.0151 16.3019C14.9022 15.7373 15.2676 15.188 15.8322 15.0751C16.396 14.9637 16.9453 15.3284 17.0575 15.893L18.5306 23.2596C18.6435 23.8227 18.2781 24.372 17.7135 24.4849C17.6448 24.4983 17.5761 24.5046 17.5083 24.5046Z" fill="#E6E9ED"/>
<path d="M16.0374 17.1393C15.9696 17.1393 15.9009 17.1316 15.8322 17.1194L8.46624 15.6456C7.90247 15.5327 7.53694 14.9834 7.64915 14.4203C7.76204 13.8558 8.31136 13.491 8.87522 13.604L16.2404 15.0749C16.8049 15.1878 17.1703 15.7371 17.0575 16.3017C16.959 16.7961 16.5242 17.1393 16.0374 17.1393Z" fill="#E6E9ED"/>
<path d="M19.7198 12.4138C19.3132 12.0079 18.6533 12.0079 18.2467 12.4138L11.1859 19.4754H8.67129C8.096 19.4754 7.62988 19.9423 7.62988 20.516C7.62988 21.0928 8.096 21.558 8.67129 21.558H10.5763V23.4639C10.5763 24.0376 11.0424 24.5045 11.6177 24.5045C12.193 24.5045 12.6591 24.0376 12.6591 23.4639V20.9494L19.7198 13.8878C20.1265 13.4819 20.1265 12.8212 19.7198 12.4138Z" fill="#F5F7FA"/>
<path d="M50.5 8.70059V27.9117C50.5 29.0442 49.5784 29.9648 48.4469 29.9648H25.4995V6.64746H48.4469C49.5784 6.64746 50.5 7.56807 50.5 8.70059Z" fill="#FA8C16"/>
<path d="M42.6531 16.8414H34.1012C33.2924 16.8414 32.6367 16.1857 32.6367 15.377C32.6367 14.5682 33.2924 13.9125 34.1012 13.9125H42.6531C43.4619 13.9125 44.1176 14.5682 44.1176 15.377C44.1176 16.1857 43.462 16.8414 42.6531 16.8414Z" fill="#F5F5F5"/>
<path d="M44.117 20.5916C44.117 21.4 43.4619 22.0561 42.6525 22.0561H24.984C24.1756 22.0561 23.5195 21.4 23.5195 20.5916C23.5195 19.7822 24.1756 19.1272 24.984 19.1272H42.6526C43.4619 19.1272 44.117 19.7823 44.117 20.5916Z" fill="#FAFAFA"/>
<path d="M44.1171 20.5916C44.1171 21.4 43.462 22.0561 42.6526 22.0561H25.4995V19.1272H42.6527C43.462 19.1272 44.1171 19.7823 44.1171 20.5916Z" fill="#F5F5F5"/>
</g>
<defs>
<clipPath id="clip0">
<rect x="0.5" width="50" height="50" fill="white"/>
</clipPath>
</defs>
</svg>
