<svg width="51" height="50" viewBox="0 0 51 50" fill="none" xmlns="http://www.w3.org/2000/svg">
<g clip-path="url(#clip0)">
<path d="M37.5142 15.7934H4.27693C2.19105 15.7934 0.5 17.4843 0.5 19.5702V38.3471C0.5 40.4331 2.19094 42.124 4.27693 42.124H37.5144C39.6002 42.124 41.2912 40.4332 41.2912 38.3471V19.5702C41.2912 17.4843 39.6 15.7934 37.5142 15.7934ZM6.532 23.777C6.532 22.5033 7.56444 21.4708 8.83821 21.4708H11.0452C12.3188 21.4708 13.3514 22.5032 13.3514 23.777V25.984C13.3514 27.2576 12.319 28.2902 11.0452 28.2902H8.83821C7.56456 28.2902 6.532 27.2577 6.532 25.984V23.777ZM17.9095 36.0393C17.9095 36.3959 17.6204 36.6848 17.264 36.6848H7.31082C6.95437 36.6848 6.66519 36.3957 6.66519 36.0393V34.0755C6.66519 33.7191 6.95437 33.43 7.31082 33.43H17.2641C17.6206 33.43 17.9096 33.7191 17.9096 34.0755L17.9095 36.0393ZM35.1258 36.0393C35.1258 36.3959 34.8366 36.6848 34.4801 36.6848H24.527C24.1705 36.6848 23.8814 36.3957 23.8814 36.0393V34.0755C23.8814 33.7191 24.1705 33.43 24.527 33.43H34.4801C34.8365 33.43 35.1258 33.7191 35.1258 34.0755V36.0393Z" fill="#FF8917"/>
<path d="M46.7232 7.87589H13.4859C11.4 7.87589 9.70898 9.56682 9.70898 11.6528V12.6732H37.5146C41.3174 12.6732 44.4115 15.7672 44.4115 19.5702V22.4907H50.5002V11.6528C50.5002 9.56682 48.809 7.87589 46.7232 7.87589Z" fill="#FFC069"/>
<path d="M44.4111 34.2067H46.7228C48.8086 34.2067 50.4998 32.5157 50.4998 30.4296V26.2353H44.4111V34.2067Z" fill="#FFC069"/>
</g>
<defs>
<clipPath id="clip0">
<rect x="0.5" width="50" height="50" fill="white"/>
</clipPath>
</defs>
</svg>
