<svg width="51" height="50" viewBox="0 0 51 50" fill="none" xmlns="http://www.w3.org/2000/svg">
<g clip-path="url(#clip0)">
<path d="M25.5 50.0007C18.8697 50.0007 12.6212 47.4166 7.89098 42.7146C3.12948 37.9821 0.504584 31.6974 0.500006 25.0186C0.495429 18.4036 3.04975 12.1654 7.69224 7.45425C12.3298 2.74806 18.5191 0.102187 25.1204 0.0037675C28.5174 -0.0481124 31.8232 0.579024 34.9494 1.86458C37.9649 3.10397 40.6791 4.89879 43.0171 7.19867C45.354 9.49778 47.1919 12.1807 48.4797 15.1729C49.8153 18.2758 50.4947 21.5698 50.5 24.9641C50.5088 31.1256 48.2566 37.0479 44.1581 41.6404C43.4123 42.4762 42.3831 42.9538 41.2593 42.9859C40.1454 43.0183 39.0502 42.583 38.2609 41.7934L33.6982 37.2306C33.1962 36.7286 33.1962 35.9146 33.6982 35.4122C34.2002 34.9101 35.0146 34.9101 35.5166 35.4122L40.0794 39.9749C40.375 40.2709 40.7687 40.4277 41.1864 40.4151C41.5954 40.4037 41.9696 40.2305 42.2397 39.928C45.9159 35.8085 47.9361 30.4954 47.9281 24.9679C47.9194 18.9426 45.5348 13.2835 41.2135 9.03201C36.8899 4.77862 31.1854 2.48408 25.1586 2.57525C19.237 2.66337 13.6847 5.03726 9.52405 9.25937C5.35917 13.486 3.06768 19.0822 3.07188 25.0171C3.07607 31.0066 5.43126 36.6439 9.70411 40.8908C13.9487 45.1099 19.5548 47.4292 25.5004 47.4292C25.5412 47.4292 25.5813 47.4292 25.6225 47.4288C28.1531 47.4155 30.6346 46.9837 32.997 46.146C33.6661 45.9087 34.4016 46.2589 34.6389 46.928C34.8762 47.5974 34.526 48.3325 33.8565 48.5698C31.2217 49.504 28.4556 49.9854 25.6362 50.0007C25.5908 50.0007 25.545 50.0007 25.5 50.0007Z" fill="#FF8917"/>
<path d="M42.6107 39.4997C42.4887 39.6435 42.3655 39.7865 42.2392 39.9273C41.9695 40.2302 41.5953 40.403 41.1863 40.4144C40.7686 40.427 40.375 40.2702 40.0793 39.9742L35.5166 35.4115C35.0142 34.9094 34.2001 34.9094 33.6981 35.4115C33.1957 35.9138 33.1957 36.7279 33.6981 37.2299L38.2608 41.7927C39.0501 42.5823 40.1453 43.0176 41.2592 42.9852C42.1255 42.9607 42.9354 42.6697 43.6029 42.1551C42.8209 41.7362 42.5467 40.5647 42.6107 39.4997Z" fill="#FF8917"/>
<path d="M38.0844 37.8273L36.1138 39.798C35.8315 40.0803 35.3821 40.1062 35.0689 39.8582L28.1094 34.3445L32.6309 29.8225L38.1447 36.7825C38.3927 37.0956 38.3667 37.545 38.0844 37.8273Z" fill="#FFA940"/>
<path d="M24.0538 14.7285L21.2401 11.9148C20.1132 10.788 18.2864 10.788 17.1595 11.9148L13.5966 15.4774C10.7519 18.322 10.0943 22.6887 11.9742 26.2455C14.6632 31.332 18.8219 35.4908 23.9085 38.1798C27.4649 40.0597 31.8316 39.4016 34.6762 36.557L38.2387 32.9945C39.3656 31.8676 39.3656 30.0404 38.2387 28.9135L35.4254 26.0998C34.2985 24.9729 32.4713 24.9729 31.3444 26.0998L27.5423 29.9023C26.9186 30.526 25.9589 30.6637 25.1852 30.2406C22.9597 29.0237 21.1302 27.1942 19.9133 24.9687C19.4907 24.1951 19.6284 23.2353 20.2517 22.612L24.0538 18.8095C25.1807 17.6826 25.1807 15.8554 24.0538 14.7285Z" fill="#FFA940"/>
<path d="M21.8142 27.6108C21.0783 26.815 20.4386 25.9289 19.9133 24.9687C19.4941 24.2023 19.6265 23.2533 20.2353 22.6295C19.2602 18.4212 19.0932 14.3169 18.9753 11.0794C18.3134 11.1305 17.6657 11.4086 17.1595 11.9148L13.5966 15.4778C10.7519 18.3224 10.0943 22.6891 11.9742 26.2455C14.6632 31.332 18.8219 35.4908 23.9085 38.1798C26.1771 39.3787 28.7745 39.5439 31.0969 38.7692C26.3869 35.7555 23.5457 31.7822 21.8142 27.6108Z" fill="#FF8917"/>
<path d="M24.0537 18.8095L23.1199 19.7433L16.2256 12.8487L17.1594 11.9148C18.2863 10.788 20.1131 10.788 21.24 11.9148L24.0537 14.7285C25.1806 15.8554 25.1806 17.6826 24.0537 18.8095Z" fill="#FFA940"/>
<path d="M18.9752 11.0794C18.3134 11.1305 17.6656 11.4086 17.1594 11.9148L16.2256 12.8487L19.2289 15.8524C19.09 14.1342 19.0279 12.521 18.9752 11.0794Z" fill="#FFA940"/>
<path d="M38.2392 32.9944L37.3053 33.9283L30.4106 27.034L31.3445 26.1001C32.4713 24.9729 34.2986 24.9729 35.4254 26.1001L38.2392 28.9139C39.366 30.0407 39.366 31.8676 38.2392 32.9944Z" fill="#FF8917"/>
<path d="M40.0883 22.5479C39.6839 22.5479 39.3559 22.2202 39.3559 21.8155C39.3559 18.8675 38.2115 16.0992 36.1328 14.0209C34.0542 11.9423 31.2863 10.7979 28.3379 10.7979C27.9335 10.7979 27.6055 10.4698 27.6055 10.0655C27.6055 9.66072 27.9335 9.33304 28.3379 9.33304C31.6773 9.33304 34.8137 10.63 37.1685 12.9852C39.5237 15.3404 40.8207 18.4765 40.8207 21.8159C40.8207 22.2202 40.493 22.5479 40.0883 22.5479Z" fill="#FF8917"/>
<path d="M36.7565 22.5479C36.3518 22.5479 36.0241 22.2202 36.0241 21.8155C36.0241 19.759 35.2253 17.828 33.7757 16.378C32.3258 14.9284 30.3948 14.1296 28.3379 14.1296C27.9335 14.1296 27.6055 13.802 27.6055 13.3972C27.6055 12.9929 27.9335 12.6648 28.3379 12.6648C30.7858 12.6648 33.0849 13.6158 34.8114 15.3423C36.538 17.0689 37.489 19.368 37.489 21.8155C37.489 22.2202 37.1609 22.5479 36.7565 22.5479Z" fill="#FF8917"/>
<path d="M33.4268 22.5479C33.0221 22.5479 32.6944 22.2202 32.6944 21.8155C32.6944 20.652 32.2412 19.5579 31.4184 18.7355C30.5955 17.9127 29.5019 17.4595 28.3384 17.4595C27.9336 17.4595 27.606 17.1314 27.606 16.7271C27.606 16.3227 27.9336 15.9946 28.3384 15.9946C29.8929 15.9946 31.355 16.6 32.4544 17.6994C33.5538 18.7988 34.1592 20.2606 34.1592 21.8155C34.1592 22.2202 33.8312 22.5479 33.4268 22.5479Z" fill="#FF8917"/>
</g>
<defs>
<clipPath id="clip0">
<rect x="0.5" width="50" height="50" fill="white"/>
</clipPath>
</defs>
</svg>
