<svg width="57" height="64" viewBox="0 0 57 64" fill="none" xmlns="http://www.w3.org/2000/svg"><g clip-path="url(#commitment__icon1)"><path d="M28.1561 64.037C43.7063 64.037 56.3122 51.4339 56.3122 35.8871C56.3122 20.3404 43.7063 7.7373 28.1561 7.7373C12.6059 7.7373 0 20.3404 0 35.8871C0 51.4339 12.6059 64.037 28.1561 64.037Z" fill="#FFE7C0"></path><path d="M28.3017 55.3555C39.3975 55.3555 48.3924 54.64 48.3924 53.7574C48.3924 52.8747 39.3975 52.1592 28.3017 52.1592C17.2059 52.1592 8.21094 52.8747 8.21094 53.7574C8.21094 54.64 17.2059 55.3555 28.3017 55.3555Z" fill="#FFD18D"></path><path d="M36.4032 52.7762L17.6567 48.1996C17.3297 48.127 17.1117 47.8001 17.2207 47.4732L28.7012 0.472026C28.7738 0.145125 29.1008 -0.072809 29.4278 0.0361581L48.1743 4.61278C48.5013 4.68542 48.7192 5.01232 48.6102 5.33922L37.1661 52.304C37.0935 52.6309 36.7302 52.8489 36.4032 52.7762Z" fill="#FFA510"></path><path d="M31.0428 34.3779L29.2773 33.9502L26.5053 45.3879L28.2707 45.8156L31.0428 34.3779Z" fill="#E2E2E2"></path><path d="M33.6239 34.998L31.8584 34.5703L29.0863 46.0081L30.8518 46.4358L33.6239 34.998Z" fill="#E2E2E2"></path><path d="M35.9156 43.2818L32.6318 42.4863L31.6308 46.6166L34.9146 47.4121L35.9156 43.2818Z" fill="#E2E2E2"></path><path d="M40.5797 23.983L37.2959 23.1875L32.787 41.7915L36.0708 42.587L40.5797 23.983Z" fill="#E2E2E2"></path><path d="M30.0811 15.1832L30.1537 14.8926L41.7068 17.762L41.6341 18.0526L30.0811 15.1832Z" fill="white"></path><path opacity="0.1" d="M34.0414 51.4683L20.4175 53.1028L18.8916 53.2845C17.4747 53.4661 16.1305 52.4127 15.9852 50.9961L10.7173 7.5546C10.5356 6.10171 11.5529 4.7941 13.0061 4.61249L14.2777 4.4672L28.1559 2.79637C29.6091 2.61476 30.917 3.63179 31.0987 5.08468L36.3302 48.5262C36.5119 49.9791 35.4946 51.2867 34.0414 51.4683Z" fill="black"></path><path d="M33.1332 52.0865L19.5093 53.721L17.9834 53.9026C16.5665 54.0842 15.2223 53.0309 15.077 51.6143L9.80907 8.13644C9.62742 6.68355 10.6447 5.37594 12.0979 5.19433L13.3695 5.04904L27.2477 3.41454C28.7009 3.23292 30.0088 4.24995 30.1905 5.70285L35.422 49.1807C35.5674 50.5973 34.5501 51.9049 33.1332 52.0865Z" fill="white"></path><path d="M19.473 53.7208L17.9471 53.9024C16.5302 54.084 15.186 53.0307 15.0407 51.6141L9.80907 8.13623C9.62742 6.68333 10.6447 5.37573 12.0979 5.19412L13.3695 5.04883L19.473 53.7208Z" fill="#458CFF"></path><path d="M17.6564 20.5218L17.6201 20.1949L29.4275 18.5967L29.4638 18.8873L17.6564 20.5218Z" fill="#458CFF"></path><path d="M19.9866 26.816L18.1826 27.0283L20.9942 50.9078L22.7981 50.6955L19.9866 26.816Z" fill="#458CFF"></path><path d="M24.4837 38.65L22.6797 38.8623L24.0557 50.5495L25.8597 50.3372L24.4837 38.65Z" fill="#E2E2E2"></path><path d="M27.097 38.3238L25.293 38.5361L26.669 50.2234L28.473 50.0111L27.097 38.3238Z" fill="#E2E2E2"></path><path d="M32.1474 45.3248L28.792 45.7197L29.2889 49.9401L32.6443 49.5452L32.1474 45.3248Z" fill="#E2E2E2"></path><path d="M29.8232 25.6178L26.4678 26.0127L28.706 45.0225L32.0614 44.6276L29.8232 25.6178Z" fill="#E2E2E2"></path><path d="M24.5961 13.1483C24.8141 13.003 24.9957 12.8577 25.2137 12.7125C25.2501 12.6761 25.2864 12.6761 25.3227 12.6398C25.468 12.5308 25.6134 12.4945 25.795 12.6035C25.8677 12.6398 25.9767 12.6761 26.0493 12.7488C26.1583 12.8214 26.1947 12.8941 26.122 13.0394C26.0493 13.1483 25.9767 13.2936 25.904 13.4026C25.5407 14.0201 25.1411 14.6375 24.7778 15.255C24.6688 15.4003 24.5961 15.4366 24.4508 15.364C24.3781 15.3277 24.3055 15.2913 24.2328 15.2187C24.0875 15.1097 24.0512 14.9644 24.0512 14.7828C24.0875 14.5286 24.1238 14.2743 24.1601 14.0201C24.1601 13.9474 24.1601 13.9474 24.0875 13.9111C23.8695 13.9111 23.6515 13.8385 23.4699 13.7295C23.0702 13.5116 22.6343 13.2936 22.2346 13.0757C22.162 13.0394 22.162 13.0394 22.1256 13.112C22.0893 13.1483 22.0893 13.221 22.053 13.2573C21.8713 13.4752 21.7987 13.7658 21.7623 14.0201C21.5807 14.7465 21.4354 15.473 21.2537 16.1994C21.2537 16.2357 21.2537 16.2721 21.2174 16.2721C21.1447 16.4537 21.0357 16.5263 20.8904 16.4537C20.7088 16.381 20.5271 16.3084 20.3454 16.1994C20.2365 16.1268 20.2001 16.0178 20.2001 15.9088C20.2001 14.6375 20.2001 13.3663 20.2001 12.095C20.2001 11.9134 20.2001 11.9134 20.0185 11.8044C19.4372 11.4775 18.8922 11.1869 18.3109 10.86C18.0566 10.7147 17.875 10.4968 17.766 10.2425C17.6207 9.87932 17.8023 9.62506 18.1656 9.62506C18.4926 9.62506 18.7832 9.6977 19.0739 9.84299C19.6188 10.1699 20.2001 10.4605 20.7451 10.7874C20.8177 10.8237 20.8541 10.8237 20.9267 10.7874C22.1256 10.1336 23.2882 9.47977 24.4871 8.82597C24.6324 8.75332 24.7414 8.75332 24.8504 8.82597C24.9957 8.93493 25.1774 9.00758 25.2864 9.11655C25.4317 9.22551 25.4317 9.3708 25.2864 9.51609C25.0684 9.73403 24.8141 9.95196 24.5598 10.1699C24.0875 10.5694 23.6515 10.969 23.1792 11.4049C23.1429 11.4412 23.1429 11.4412 23.1066 11.4775C23.0339 11.6228 22.9612 11.7318 22.8523 11.877C22.8159 11.9497 22.8159 11.9497 22.8886 11.986C23.2882 12.2039 23.6879 12.4219 24.0875 12.6761C24.2691 12.7488 24.4508 12.8941 24.5961 13.1483C24.5961 13.112 24.5961 13.112 24.5961 13.1483Z" fill="#458CFF"></path><path d="M38.4017 12.4954C38.656 12.4954 38.9103 12.4954 39.1646 12.5317C39.201 12.5317 39.2373 12.5317 39.2736 12.5317C39.4553 12.5317 39.6006 12.6044 39.6733 12.786C39.7096 12.8586 39.7459 12.9676 39.7823 13.0402C39.8186 13.1855 39.8186 13.2582 39.6733 13.2945C39.5643 13.3308 39.419 13.4035 39.31 13.4398C38.6197 13.694 37.9657 13.9846 37.2755 14.2389C37.0938 14.3115 37.0211 14.2752 36.9485 14.0936C36.9122 14.0209 36.8758 13.912 36.8395 13.8393C36.7668 13.6577 36.8395 13.5124 36.9485 13.4035C37.1301 13.2218 37.3118 13.0402 37.4934 12.8586C37.5298 12.8223 37.5298 12.786 37.4934 12.7497C37.3118 12.6044 37.2028 12.4228 37.0938 12.2411C36.9122 11.8053 36.6942 11.3694 36.5125 10.9699C36.4762 10.8972 36.4762 10.8972 36.4035 10.9335C36.3672 10.9699 36.2945 10.9699 36.2582 11.0062C35.9676 11.0788 35.7496 11.2604 35.5316 11.4421C34.9503 11.9142 34.369 12.3864 33.8241 12.8586C33.7877 12.8949 33.7877 12.8949 33.7514 12.8949C33.6061 13.0039 33.4608 12.9676 33.3518 12.8223C33.2428 12.6407 33.1338 12.4591 33.0611 12.2775C33.0248 12.1685 33.0611 12.0595 33.1338 11.9506C33.8967 10.9335 34.6597 9.91651 35.4589 8.89949C35.5679 8.7542 35.5679 8.7542 35.4953 8.57259C35.241 7.99143 34.9503 7.37395 34.7323 6.79279C34.6233 6.53853 34.587 6.24795 34.6597 5.95738C34.7323 5.59415 35.0593 5.52151 35.3499 5.70312C35.6043 5.88473 35.7859 6.10267 35.9312 6.42957C36.1855 7.01073 36.4399 7.59188 36.6942 8.17304C36.7305 8.24569 36.7668 8.28201 36.8395 8.28201C38.1837 8.49994 39.5279 8.68155 40.8358 8.89949C40.9812 8.93581 41.0902 8.97213 41.1265 9.11742C41.1991 9.29903 41.2718 9.44432 41.3081 9.62594C41.3445 9.80755 41.2718 9.91651 41.0902 9.95284C40.7632 9.98916 40.4362 10.0255 40.1456 10.0255C39.5279 10.0618 38.9103 10.0981 38.2927 10.1708C38.2564 10.1708 38.22 10.1708 38.1837 10.2071C38.0384 10.2797 37.8931 10.3161 37.7478 10.3887C37.6751 10.425 37.6751 10.425 37.7114 10.4977C37.8931 10.9335 38.0747 11.3331 38.2564 11.769C38.3654 11.9869 38.4017 12.2411 38.4017 12.4591V12.4954Z" fill="white"></path></g><defs><clipPath id="commitment__icon1"><rect width="56.2759" height="64" fill="white"></rect></clipPath></defs></svg>